<svg id="Layer_1" data-name="Layer 1" xmlns="http://www.w3.org/2000/svg" xmlns:xlink="http://www.w3.org/1999/xlink" viewBox="0 0 612 127"><defs><style>.cls-1{fill:#1b75bc;}.cls-2{fill:#014159;}.cls-3{fill:#d1d3d4;}.cls-4{fill:url(#linear-gradient);}.cls-5{fill:url(#linear-gradient-2);}.cls-6{fill:url(#linear-gradient-3);}.cls-7{fill:url(#linear-gradient-4);}</style><linearGradient id="linear-gradient" x1="114.53" y1="1.93" x2="141.57" y2="59.12" gradientUnits="userSpaceOnUse"><stop offset="0.03" stop-color="#02b1e4"/><stop offset="0.19" stop-color="#02b1e4"/><stop offset="0.39" stop-color="#06a8de"/><stop offset="0.71" stop-color="#1090ce"/><stop offset="1" stop-color="#1b75bc"/></linearGradient><linearGradient id="linear-gradient-2" x1="71.43" y1="22.3" x2="98.46" y2="79.49" xlink:href="#linear-gradient"/><linearGradient id="linear-gradient-3" x1="46.19" y1="34.23" x2="73.23" y2="91.42" xlink:href="#linear-gradient"/><linearGradient id="linear-gradient-4" x1="96.36" y1="10.52" x2="123.39" y2="67.71" xlink:href="#linear-gradient"/></defs><title>Gamesuite-Logo_Horizontal-FullColour-Tag</title><path class="cls-1" d="M234.11,81.69a4,4,0,0,1-.31,1.59,3.85,3.85,0,0,1-.84,1.28,3.8,3.8,0,0,1-1.27.84,4.07,4.07,0,0,1-1.6.31H201.28a12.18,12.18,0,0,1-2.38-.26,12.52,12.52,0,0,1-2.52-.81A11.93,11.93,0,0,1,194,83.21a9.91,9.91,0,0,1-2-2.12,10.64,10.64,0,0,1-1.4-2.89,12.43,12.43,0,0,1-.52-3.7V52.88a12.18,12.18,0,0,1,.26-2.38,12.56,12.56,0,0,1,.82-2.52,11.53,11.53,0,0,1,1.44-2.38,9.72,9.72,0,0,1,2.13-2,10.71,10.71,0,0,1,2.88-1.4,11.94,11.94,0,0,1,3.68-.52h32.46v8H201.28a3.24,3.24,0,0,0-2.39.82,3.33,3.33,0,0,0-.83,2.46V74.5a2.92,2.92,0,0,0,3.22,3.22h24.85v-10H204.87v-8h25.22a3.91,3.91,0,0,1,1.6.32,4,4,0,0,1,2.11,2.15,3.83,3.83,0,0,1,.31,1.55Z"/><path class="cls-1" d="M344.92,85.71h-8.05V59.48L322.71,84.39a3.44,3.44,0,0,1-1.46,1.44,4.21,4.21,0,0,1-2,.49,4,4,0,0,1-1.95-.49,3.54,3.54,0,0,1-1.43-1.44L301.65,59.48V85.71h-8V45.08a4,4,0,0,1,2.95-3.9,4.34,4.34,0,0,1,1.29-.11,4.06,4.06,0,0,1,1.24.28,3.86,3.86,0,0,1,1.09.64,3.66,3.66,0,0,1,.83,1l18.18,31.6L337.42,43a3.9,3.9,0,0,1,1.95-1.66,4.19,4.19,0,0,1,2.6-.15,4,4,0,0,1,2.12,1.44,4,4,0,0,1,.83,2.46Z"/><path class="cls-1" d="M393.36,85.71h-28.8a12.77,12.77,0,0,1-3.63-.58,10.73,10.73,0,0,1-3.64-1.92,10.89,10.89,0,0,1-2.79-3.47,11.15,11.15,0,0,1-1.12-5.24V45.69a4.09,4.09,0,0,1,.3-1.56,4.19,4.19,0,0,1,.85-1.29A3.71,3.71,0,0,1,355.8,42a4,4,0,0,1,1.6-.31h36v8h-32V74.5a2.9,2.9,0,0,0,3.26,3.22h28.74Zm-3.59-18H364.56v-8h25.21Z"/><path class="cls-2" d="M442.61,72.75A14,14,0,0,1,442,77a13.05,13.05,0,0,1-1.58,3.34,10.55,10.55,0,0,1-2.3,2.45,14,14,0,0,1-2.74,1.66,13.42,13.42,0,0,1-2.87,1,13,13,0,0,1-2.75.31H399v-8h30.8a4.68,4.68,0,0,0,3.58-1.35,5,5,0,0,0,1.27-3.62,6,6,0,0,0-.33-2,4.75,4.75,0,0,0-1-1.59,4.3,4.3,0,0,0-1.54-1,5.37,5.37,0,0,0-2-.37H411.41a14.25,14.25,0,0,1-4.18-.69,12.61,12.61,0,0,1-4.16-2.22,12.22,12.22,0,0,1-3.19-4,13.08,13.08,0,0,1-1.28-6.08,13,13,0,0,1,1.28-6.06,12.19,12.19,0,0,1,7.35-6.27,14.25,14.25,0,0,1,4.18-.69h27.18v8H411.41A4.59,4.59,0,0,0,407.86,51a5.17,5.17,0,0,0-1.27,3.65,5,5,0,0,0,1.27,3.64,4.67,4.67,0,0,0,3.55,1.34h18.42a14.59,14.59,0,0,1,2.74.35,14,14,0,0,1,2.87,1,14.17,14.17,0,0,1,2.72,1.7,11.29,11.29,0,0,1,2.28,2.48A12,12,0,0,1,442,68.51,14.54,14.54,0,0,1,442.61,72.75Z"/><path class="cls-2" d="M491.76,81.69a4,4,0,0,1-.31,1.59,3.87,3.87,0,0,1-.85,1.28,4.13,4.13,0,0,1-2.86,1.15h-18a24.75,24.75,0,0,1-5.16-.55,23,23,0,0,1-5.05-1.71,21.5,21.5,0,0,1-4.59-2.93,19.07,19.07,0,0,1-3.76-4.22,20.59,20.59,0,0,1-2.54-5.59,25.12,25.12,0,0,1-.92-7v-22h8v22a15.45,15.45,0,0,0,.93,5.71A12.67,12.67,0,0,0,459,73.3a11.41,11.41,0,0,0,3.17,2.46,17.23,17.23,0,0,0,3.27,1.32,15.2,15.2,0,0,0,2.73.54c.79.07,1.31.1,1.55.1h14v-36h8Z"/><path class="cls-2" d="M508.45,85.71h-8v-44h8Z"/><path class="cls-2" d="M557,49.66h-17.6V85.71h-8v-36H513.75v-8H557Z"/><path class="cls-2" d="M602,85.71H573.19a12.76,12.76,0,0,1-3.62-.58,10.57,10.57,0,0,1-6.43-5.39A11.15,11.15,0,0,1,562,74.5V45.69a4.1,4.1,0,0,1,.31-1.56,4.19,4.19,0,0,1,.85-1.29,3.62,3.62,0,0,1,1.27-.86,4,4,0,0,1,1.6-.31h36v8H570V74.5a3.24,3.24,0,0,0,.83,2.4,3.28,3.28,0,0,0,2.42.82H602Zm-3.59-18H573.19v-8h25.22Z"/><path class="cls-1" d="M263.85,55.9l5.56,10.59,6.38,12.12H251.9l6.38-12.12,5.57-10.59m0-13.85a1.24,1.24,0,0,0-1.1.69L252,63.18,241.25,83.62a1.4,1.4,0,0,0,1.1,2.09h43a1.4,1.4,0,0,0,1.09-2.09L275.7,63.18,265,42.74a1.26,1.26,0,0,0-1.1-.69Z"/><path class="cls-2" d="M199,112.19a.4.4,0,0,1,.11.27.38.38,0,0,1-.11.28.4.4,0,0,1-.27.11h-7.24a.34.34,0,0,1-.27-.12.37.37,0,0,1-.12-.27V99.79a.41.41,0,0,1,.39-.39h7.24a.37.37,0,0,1,.27.12.39.39,0,0,1,0,.54.36.36,0,0,1-.27.11h-6.82v5.36h6a.39.39,0,0,1,.27.11.37.37,0,0,1,.12.27.35.35,0,0,1-.12.28.39.39,0,0,1-.27.11h-6v5.78h6.82A.4.4,0,0,1,199,112.19Z"/><path class="cls-2" d="M201.11,108.41a.42.42,0,0,1-.11-.29.36.36,0,0,1,.11-.26.34.34,0,0,1,.26-.1h4.41a.31.31,0,0,1,.26.11.42.42,0,0,1,.11.29.36.36,0,0,1-.11.26.34.34,0,0,1-.26.1h-4.41A.31.31,0,0,1,201.11,108.41Z"/><path class="cls-2" d="M210,112.55A7.43,7.43,0,0,1,207.9,111a.38.38,0,0,1-.12-.29.41.41,0,0,1,.13-.29.4.4,0,0,1,.29-.15.45.45,0,0,1,.33.17,5,5,0,0,0,1.78,1.35,5.14,5.14,0,0,0,2.16.46,4,4,0,0,0,2.43-.71,2.22,2.22,0,0,0,1-1.88,2.41,2.41,0,0,0-.49-1.52,3.58,3.58,0,0,0-1.19-1,17.63,17.63,0,0,0-1.91-.8,20.66,20.66,0,0,1-2.06-.88,3.7,3.7,0,0,1-1.27-1.1,3.29,3.29,0,0,1,0-3.57,3.58,3.58,0,0,1,1.48-1.21,5.34,5.34,0,0,1,2.23-.44,5.79,5.79,0,0,1,2.15.41,3.92,3.92,0,0,1,1.61,1.16.82.82,0,0,1,.19.41.36.36,0,0,1-.14.28.49.49,0,0,1-.32.12.34.34,0,0,1-.25-.11,3.77,3.77,0,0,0-1.38-1.1,4.22,4.22,0,0,0-1.86-.4,4.1,4.1,0,0,0-2.43.69,2.18,2.18,0,0,0-1,1.88,2.15,2.15,0,0,0,.47,1.4,3.39,3.39,0,0,0,1.18.93,14.62,14.62,0,0,0,1.77.74,18.94,18.94,0,0,1,2.13.89,3.83,3.83,0,0,1,1.34,1.17,3.32,3.32,0,0,1,.56,2,2.91,2.91,0,0,1-.52,1.66,3.51,3.51,0,0,1-1.49,1.22,5.16,5.16,0,0,1-2.21.45A5.93,5.93,0,0,1,210,112.55Z"/><path class="cls-2" d="M225.81,103.78a4.44,4.44,0,0,1,1.6,1.75A5.42,5.42,0,0,1,228,108a5.34,5.34,0,0,1-.58,2.51,4.52,4.52,0,0,1-1.61,1.77,4.11,4.11,0,0,1-2.26.64,4,4,0,0,1-2.11-.58,4.42,4.42,0,0,1-1.58-1.63v5.55a.36.36,0,0,1-.11.27.36.36,0,0,1-.54,0,.37.37,0,0,1-.12-.27V103.53a.4.4,0,0,1,.11-.27.38.38,0,0,1,.28-.11.37.37,0,0,1,.27.11.36.36,0,0,1,.11.27v1.77a3.78,3.78,0,0,1,1.54-1.62,4.53,4.53,0,0,1,4.43.1Zm-.42,7.91a3.76,3.76,0,0,0,1.34-1.5,4.94,4.94,0,0,0,0-4.29,3.87,3.87,0,0,0-1.34-1.49,3.72,3.72,0,0,0-3.83,0,3.58,3.58,0,0,0-1.33,1.47,4.89,4.89,0,0,0-.47,2.16,4.83,4.83,0,0,0,.47,2.16,3.63,3.63,0,0,0,1.33,1.49,3.53,3.53,0,0,0,1.93.54A3.45,3.45,0,0,0,225.39,111.69Z"/><path class="cls-2" d="M238.49,110.57a4.77,4.77,0,0,1-1.7,1.81,4.57,4.57,0,0,1-2.41.66,4.52,4.52,0,0,1-2.41-.66,4.68,4.68,0,0,1-1.71-1.82,5.24,5.24,0,0,1-.63-2.55,5.3,5.3,0,0,1,.63-2.58,4.63,4.63,0,0,1,1.7-1.81,4.69,4.69,0,0,1,4.83,0,4.63,4.63,0,0,1,1.7,1.81,5.4,5.4,0,0,1,.61,2.58A5.32,5.32,0,0,1,238.49,110.57Zm-.66-4.77a3.87,3.87,0,0,0-1.42-1.55,3.72,3.72,0,0,0-2-.57,3.77,3.77,0,0,0-2,.57,4,4,0,0,0-1.43,1.55,4.71,4.71,0,0,0-.52,2.21,4.65,4.65,0,0,0,.52,2.18,4,4,0,0,0,1.43,1.55,3.85,3.85,0,0,0,5.48-1.54,5.09,5.09,0,0,0,0-4.4Z"/><path class="cls-2" d="M246.65,103.4a.39.39,0,0,1-.1.28.29.29,0,0,1-.25.12,1.1,1.1,0,0,1-.27-.09,1.5,1.5,0,0,0-.47-.08,2.58,2.58,0,0,0-1.58.62,5,5,0,0,0-1.29,1.58,4,4,0,0,0-.5,1.83v4.8a.36.36,0,0,1-.11.27.37.37,0,0,1-.27.12.35.35,0,0,1-.28-.12.39.39,0,0,1-.1-.27v-8.81a.33.33,0,0,1,.11-.27.37.37,0,0,1,.27-.12.35.35,0,0,1,.28.12.36.36,0,0,1,.1.27v2a4.61,4.61,0,0,1,1.38-1.94,3.48,3.48,0,0,1,2.2-.79C246.36,103,246.65,103.1,246.65,103.4Z"/><path class="cls-2" d="M252.12,103.3a.35.35,0,0,1,.12.25.36.36,0,0,1-.11.26.35.35,0,0,1-.26.11h-2.11v6.83a1.56,1.56,0,0,0,.3,1.13,1.09,1.09,0,0,0,.76.27l.22,0a.75.75,0,0,1,.24,0,.3.3,0,0,1,.23.1.36.36,0,0,1,.09.24c0,.12-.07.22-.23.3a1.12,1.12,0,0,1-.53.13,4.52,4.52,0,0,1-.81-.07,1.28,1.28,0,0,1-.68-.52,2.37,2.37,0,0,1-.36-1.47v-6.87h-1.57a.33.33,0,0,1-.25-.12.35.35,0,0,1-.12-.25.36.36,0,0,1,.11-.26.35.35,0,0,1,.26-.1H249v-2.44a.38.38,0,0,1,.66-.27.33.33,0,0,1,.11.27v2.44h2.11A.32.32,0,0,1,252.12,103.3Z"/><path class="cls-2" d="M253.89,110.94a.33.33,0,0,1,.15-.25.33.33,0,0,1,.23-.09.37.37,0,0,1,.31.15,3.57,3.57,0,0,0,3.11,1.6,3.16,3.16,0,0,0,1.79-.51,1.59,1.59,0,0,0,.77-1.38,1.48,1.48,0,0,0-.68-1.32,5.72,5.72,0,0,0-1.84-.73,7.19,7.19,0,0,1-2.45-1,2.11,2.11,0,0,1-.89-1.81,2.34,2.34,0,0,1,.9-1.88,3.57,3.57,0,0,1,2.33-.74,4.33,4.33,0,0,1,1.56.31,3.91,3.91,0,0,1,1.41,1,.36.36,0,0,1,.14.27.43.43,0,0,1-.14.31.56.56,0,0,1-.25.07.28.28,0,0,1-.23-.11,3.31,3.31,0,0,0-2.57-1.1,2.91,2.91,0,0,0-1.72.5,1.62,1.62,0,0,0-.7,1.39,1.56,1.56,0,0,0,.76,1.27,7.05,7.05,0,0,0,2.06.8,9.47,9.47,0,0,1,1.62.55,2.58,2.58,0,0,1,1,.83,2.35,2.35,0,0,1,.39,1.41,2.26,2.26,0,0,1-.94,1.91,4,4,0,0,1-2.42.7,4.45,4.45,0,0,1-3.6-1.73A.69.69,0,0,1,253.89,110.94Z"/><path class="cls-2" d="M278.61,99.51a.37.37,0,0,1,.09.26v12.65a.44.44,0,0,1-.11.32.44.44,0,0,1-.29.11.38.38,0,0,1-.31-.16l-8.64-11.81v11.64a.3.3,0,0,1-.11.23.38.38,0,0,1-.26.1.36.36,0,0,1-.26-.1.29.29,0,0,1-.1-.23V99.79a.37.37,0,0,1,.1-.29.34.34,0,0,1,.24-.1.36.36,0,0,1,.29.14L278,111.42V99.77a.38.38,0,0,1,.37-.37A.37.37,0,0,1,278.61,99.51Z"/><path class="cls-2" d="M289.84,110.65a.37.37,0,0,1,.1.24.38.38,0,0,1-.08.23,5.13,5.13,0,0,1-1.58,1.38,3.93,3.93,0,0,1-2,.54,5.24,5.24,0,0,1-2.56-.62,4.32,4.32,0,0,1-1.73-1.74,5.37,5.37,0,0,1-.63-2.64,5.65,5.65,0,0,1,.61-2.69,4.34,4.34,0,0,1,1.6-1.78,4,4,0,0,1,2.13-.62,4.64,4.64,0,0,1,2.1.49,4,4,0,0,1,1.59,1.47,4.68,4.68,0,0,1,.65,2.42.41.41,0,0,1-.11.28.35.35,0,0,1-.27.13H282.1V108a4.94,4.94,0,0,0,.48,2.18,3.63,3.63,0,0,0,1.42,1.56,4.21,4.21,0,0,0,2.27.58,3.67,3.67,0,0,0,3-1.6.42.42,0,0,1,.33-.17A.3.3,0,0,1,289.84,110.65Zm-5.6-6.55a3.79,3.79,0,0,0-1.3,1.11,4.08,4.08,0,0,0-.76,1.8h7.06v-.18a3.26,3.26,0,0,0-.62-1.68,3.46,3.46,0,0,0-1.31-1.06,3.8,3.8,0,0,0-1.62-.37A3.2,3.2,0,0,0,284.24,104.1Z"/><path class="cls-2" d="M296.18,103.3a.38.38,0,0,1,.11.25.35.35,0,0,1-.1.26.36.36,0,0,1-.26.11h-2.11v6.83a1.57,1.57,0,0,0,.29,1.13,1.09,1.09,0,0,0,.76.27l.22,0a.85.85,0,0,1,.24,0,.29.29,0,0,1,.23.1.33.33,0,0,1,.1.24.36.36,0,0,1-.23.3,1.16,1.16,0,0,1-.54.13,4.52,4.52,0,0,1-.81-.07,1.36,1.36,0,0,1-.68-.52,2.37,2.37,0,0,1-.35-1.47v-6.87h-1.58a.35.35,0,0,1-.25-.12.38.38,0,0,1-.11-.25.34.34,0,0,1,.36-.36h1.58v-2.44a.33.33,0,0,1,.11-.27.37.37,0,0,1,.27-.12.35.35,0,0,1,.28.12.37.37,0,0,1,.11.27v2.44h2.11A.34.34,0,0,1,296.18,103.3Z"/><path class="cls-2" d="M310.89,103a.37.37,0,0,1,.11.27l0,.19-3,9.13a.4.4,0,0,1-.37.25.42.42,0,0,1-.36-.25l-2.79-6.28L302,112.6a.43.43,0,0,1-.15.18.38.38,0,0,1-.44,0,.34.34,0,0,1-.14-.18l-3.08-9.13,0-.19a.33.33,0,0,1,.11-.27.46.46,0,0,1,.29-.09.33.33,0,0,1,.34.25l2.71,8.37,2.56-6.32a.28.28,0,0,1,.14-.18.38.38,0,0,1,.44,0,.34.34,0,0,1,.15.18l2.7,6.26,2.67-8.31a.35.35,0,0,1,.35-.25A.48.48,0,0,1,310.89,103Z"/><path class="cls-2" d="M321.32,110.57a4.77,4.77,0,0,1-1.7,1.81,4.57,4.57,0,0,1-2.41.66,4.52,4.52,0,0,1-2.41-.66,4.68,4.68,0,0,1-1.71-1.82,5.24,5.24,0,0,1-.63-2.55,5.3,5.3,0,0,1,.63-2.58,4.63,4.63,0,0,1,1.7-1.81,4.51,4.51,0,0,1,2.42-.67,4.58,4.58,0,0,1,2.41.67,4.63,4.63,0,0,1,1.7,1.81,5.4,5.4,0,0,1,.61,2.58A5.32,5.32,0,0,1,321.32,110.57Zm-.67-4.77a3.91,3.91,0,0,0-1.41-1.55,3.9,3.9,0,0,0-4.06,0,3.89,3.89,0,0,0-1.43,1.55,4.59,4.59,0,0,0-.52,2.21,4.53,4.53,0,0,0,.52,2.18,3.89,3.89,0,0,0,1.43,1.55,3.75,3.75,0,0,0,2,.57,3.8,3.8,0,0,0,2-.56,3.85,3.85,0,0,0,1.41-1.55,5,5,0,0,0,0-4.4Z"/><path class="cls-2" d="M329.48,103.4a.39.39,0,0,1-.1.28.3.3,0,0,1-.25.12,1.11,1.11,0,0,1-.28-.09,1.4,1.4,0,0,0-.47-.08,2.55,2.55,0,0,0-1.57.62,4.77,4.77,0,0,0-1.29,1.58,4,4,0,0,0-.5,1.83v4.8a.4.4,0,0,1-.11.27.37.37,0,0,1-.27.12.35.35,0,0,1-.28-.12.4.4,0,0,1-.11-.27v-8.81a.34.34,0,0,1,.12-.27.37.37,0,0,1,.27-.12.38.38,0,0,1,.38.39v2a4.58,4.58,0,0,1,1.37-1.94,3.52,3.52,0,0,1,2.2-.79C329.18,103,329.48,103.1,329.48,103.4Z"/><path class="cls-2" d="M338.77,112.46a.34.34,0,0,1-.14.28.49.49,0,0,1-.24.11.42.42,0,0,1-.29-.14l-4.49-4.78L332,109.27v3.19a.39.39,0,0,1-.1.27.39.39,0,0,1-.56,0,.39.39,0,0,1-.1-.27V99a.39.39,0,0,1,.1-.27.39.39,0,0,1,.56,0,.39.39,0,0,1,.1.27v9.29l6-5a.38.38,0,0,1,.25-.11.39.39,0,0,1,.27.11.4.4,0,0,1,.12.29.37.37,0,0,1-.14.29l-4.32,3.59,4.46,4.74A.44.44,0,0,1,338.77,112.46Z"/><path class="cls-2" d="M340.89,101.48a.61.61,0,0,1-.18-.45v-.15a.58.58,0,0,1,.19-.44.71.71,0,0,1,.5-.17.64.64,0,0,1,.46.17.57.57,0,0,1,.18.44V101a.61.61,0,0,1-.18.45.7.7,0,0,1-.48.17A.73.73,0,0,1,340.89,101.48Zm.76,11.25a.36.36,0,0,1-.54,0,.4.4,0,0,1-.11-.27v-9.12a.37.37,0,0,1,.12-.27.34.34,0,0,1,.26-.12.35.35,0,0,1,.28.12.4.4,0,0,1,.11.27v9.12A.37.37,0,0,1,341.65,112.73Z"/><path class="cls-2" d="M351.7,104a3.94,3.94,0,0,1,.86,2.62v5.88a.4.4,0,0,1-.11.27.37.37,0,0,1-.27.12.35.35,0,0,1-.28-.12.4.4,0,0,1-.11-.27v-5.8a3.3,3.3,0,0,0-.68-2.14,2.49,2.49,0,0,0-2.06-.84,3.93,3.93,0,0,0-3,1.5,2.47,2.47,0,0,0-.52,1.48v5.8a.4.4,0,0,1-.11.27.37.37,0,0,1-.27.12.35.35,0,0,1-.28-.12.4.4,0,0,1-.11-.27v-8.81a.34.34,0,0,1,.12-.27.36.36,0,0,1,.27-.12.38.38,0,0,1,.38.39v1.28a4.25,4.25,0,0,1,1.57-1.42,4.14,4.14,0,0,1,2-.56A3.23,3.23,0,0,1,351.7,104Z"/><path class="cls-2" d="M364.07,103.38a.33.33,0,0,1,.11.27v8.25a5.24,5.24,0,0,1-.59,2.54,4.13,4.13,0,0,1-1.68,1.66,5,5,0,0,1-2.45.59,6,6,0,0,1-1.56-.21,4.52,4.52,0,0,1-1.3-.51c-.34-.22-.5-.43-.5-.65a.36.36,0,0,1,.08-.25.32.32,0,0,1,.24-.09.67.67,0,0,1,.35.19,1.76,1.76,0,0,0,.59.4,5.54,5.54,0,0,0,2.13.39,3.79,3.79,0,0,0,2.87-1.12,4.1,4.1,0,0,0,1.05-2.94v-1.32a3.67,3.67,0,0,1-1.6,1.84,4.57,4.57,0,0,1-2.28.62,4.41,4.41,0,0,1-2.37-.66,4.66,4.66,0,0,1-1.67-1.82,5.74,5.74,0,0,1,0-5.15,4.47,4.47,0,0,1,1.67-1.8,4.41,4.41,0,0,1,2.37-.66,4.28,4.28,0,0,1,2.36.69,4,4,0,0,1,1.52,1.64v-1.63a.37.37,0,0,1,.11-.27.35.35,0,0,1,.28-.12A.34.34,0,0,1,364.07,103.38Zm-2.49,8.38a3.78,3.78,0,0,0,1.4-1.53,5.2,5.2,0,0,0,0-4.49,3.73,3.73,0,0,0-3.41-2.06,3.76,3.76,0,0,0-2,.56,3.94,3.94,0,0,0-1.4,1.54,5,5,0,0,0,0,4.41,4,4,0,0,0,1.4,1.55,3.68,3.68,0,0,0,2,.57A3.75,3.75,0,0,0,361.58,111.76Z"/><path class="cls-2" d="M382.27,112.44a.38.38,0,0,1-.11.28.35.35,0,0,1-.26.11.39.39,0,0,1-.17,0,2,2,0,0,1-.82-1,5.79,5.79,0,0,1-.31-2.24,2.44,2.44,0,0,0-.85-2.16,3.33,3.33,0,0,0-1.95-.59h-4.5v5.63a.4.4,0,0,1-.11.27.4.4,0,0,1-.29.12.38.38,0,0,1-.29-.12.37.37,0,0,1-.12-.27V99.79a.34.34,0,0,1,.12-.27.37.37,0,0,1,.27-.12H378a4.25,4.25,0,0,1,2,.45,3.42,3.42,0,0,1,1.34,1.24,3.38,3.38,0,0,1,.48,1.79,3.65,3.65,0,0,1-.68,2.21,3.3,3.3,0,0,1-1.78,1.24,2.91,2.91,0,0,1,1.52,1.15,3.56,3.56,0,0,1,.6,2.1,6.72,6.72,0,0,0,.16,1.8,1.27,1.27,0,0,0,.49.72A.39.39,0,0,1,382.27,112.44ZM378,106.07a3.29,3.29,0,0,0,2.06-1,3,3,0,0,0,.85-2.21,2.54,2.54,0,0,0-.85-2,3.22,3.22,0,0,0-2.25-.77H373.3v5.9Z"/><path class="cls-2" d="M392.45,110.65a.36.36,0,0,1,.09.24.37.37,0,0,1-.07.23,5.13,5.13,0,0,1-1.58,1.38,4,4,0,0,1-2,.54,5.22,5.22,0,0,1-2.56-.62,4.41,4.41,0,0,1-1.74-1.74A5.48,5.48,0,0,1,384,108a5.77,5.77,0,0,1,.6-2.69,4.43,4.43,0,0,1,1.61-1.78,4,4,0,0,1,2.13-.62,4.64,4.64,0,0,1,2.1.49,4,4,0,0,1,1.59,1.47,4.77,4.77,0,0,1,.65,2.42.38.38,0,0,1-.12.28.32.32,0,0,1-.26.13h-7.55V108a4.94,4.94,0,0,0,.48,2.18,3.63,3.63,0,0,0,1.42,1.56,4.21,4.21,0,0,0,2.27.58,3.52,3.52,0,0,0,1.73-.45,3.58,3.58,0,0,0,1.28-1.15.42.42,0,0,1,.33-.17A.31.31,0,0,1,392.45,110.65Zm-5.6-6.55a3.91,3.91,0,0,0-1.31,1.11,4.07,4.07,0,0,0-.75,1.8h7.06v-.18a3.26,3.26,0,0,0-.62-1.68,3.46,3.46,0,0,0-1.31-1.06,3.84,3.84,0,0,0-1.62-.37A3.2,3.2,0,0,0,386.85,104.1Z"/><path class="cls-2" d="M402.37,103a.26.26,0,0,1,.12.22.46.46,0,0,1-.06.23l-3.82,9.15a.34.34,0,0,1-.14.18.38.38,0,0,1-.44,0,.43.43,0,0,1-.15-.18L394,103.47a.79.79,0,0,1,0-.17.4.4,0,0,1,.11-.27.37.37,0,0,1,.3-.11.41.41,0,0,1,.2.06.33.33,0,0,1,.14.19l3.48,8.35,3.49-8.35a.39.39,0,0,1,.41-.25A.52.52,0,0,1,402.37,103Z"/><path class="cls-2" d="M412.71,110.57a4.77,4.77,0,0,1-1.7,1.81,4.73,4.73,0,0,1-4.82,0,4.83,4.83,0,0,1-1.71-1.82,5.23,5.23,0,0,1-.62-2.55,5.29,5.29,0,0,1,.62-2.58,4.71,4.71,0,0,1,1.7-1.81,4.69,4.69,0,0,1,4.83,0,4.63,4.63,0,0,1,1.7,1.81,5.4,5.4,0,0,1,.61,2.58A5.32,5.32,0,0,1,412.71,110.57Zm-.66-4.77a3.87,3.87,0,0,0-1.42-1.55,3.7,3.7,0,0,0-2-.57,3.77,3.77,0,0,0-2,.57,4,4,0,0,0-1.43,1.55,4.71,4.71,0,0,0-.52,2.21,4.65,4.65,0,0,0,.52,2.18,4,4,0,0,0,1.43,1.55,3.85,3.85,0,0,0,5.48-1.54,5,5,0,0,0,0-4.4Z"/><path class="cls-2" d="M416.4,112.73a.37.37,0,0,1-.27.12.35.35,0,0,1-.28-.12.4.4,0,0,1-.11-.27V99a.37.37,0,0,1,.12-.27.36.36,0,0,1,.27-.12.38.38,0,0,1,.28.12.39.39,0,0,1,.1.27v13.44A.4.4,0,0,1,416.4,112.73Z"/><path class="cls-2" d="M427,103.38a.36.36,0,0,1,.1.27v5.59a3.57,3.57,0,0,1-1,2.77,4,4,0,0,1-2.79.95,3.91,3.91,0,0,1-2.78-.95,3.6,3.6,0,0,1-1-2.77v-5.59a.37.37,0,0,1,.11-.27.37.37,0,0,1,.27-.12.35.35,0,0,1,.28.12.37.37,0,0,1,.11.27v5.59a2.92,2.92,0,0,0,.8,2.21,3.08,3.08,0,0,0,2.23.78,3.11,3.11,0,0,0,2.25-.78,3,3,0,0,0,.8-2.21v-5.59a.37.37,0,0,1,.11-.27.35.35,0,0,1,.28-.12A.36.36,0,0,1,427,103.38Z"/><path class="cls-2" d="M434,103.3a.34.34,0,0,1,.11.25.35.35,0,0,1-.1.26.36.36,0,0,1-.26.11h-2.11v6.83a1.62,1.62,0,0,0,.29,1.13,1.1,1.1,0,0,0,.76.27l.22,0a.85.85,0,0,1,.24,0,.29.29,0,0,1,.23.1.33.33,0,0,1,.1.24.36.36,0,0,1-.23.3,1.13,1.13,0,0,1-.54.13,4.32,4.32,0,0,1-.8-.07,1.34,1.34,0,0,1-.69-.52,2.44,2.44,0,0,1-.35-1.47v-6.87h-1.58a.35.35,0,0,1-.25-.12.38.38,0,0,1-.11-.25.35.35,0,0,1,.1-.26.37.37,0,0,1,.26-.1h1.58v-2.44a.37.37,0,0,1,.11-.27.37.37,0,0,1,.27-.12.35.35,0,0,1,.28.12.37.37,0,0,1,.11.27v2.44h2.11A.34.34,0,0,1,434,103.3Z"/><path class="cls-2" d="M435.9,101.48a.61.61,0,0,1-.18-.45v-.15a.55.55,0,0,1,.19-.44.68.68,0,0,1,.5-.17.6.6,0,0,1,.45.17.57.57,0,0,1,.18.44V101a.61.61,0,0,1-.18.45.68.68,0,0,1-.47.17A.69.69,0,0,1,435.9,101.48Zm.76,11.25a.37.37,0,0,1-.27.12.35.35,0,0,1-.28-.12.4.4,0,0,1-.11-.27v-9.12a.41.41,0,0,1,.39-.39.36.36,0,0,1,.28.12.39.39,0,0,1,.1.27v9.12A.4.4,0,0,1,436.66,112.73Z"/><path class="cls-2" d="M448,110.57a4.77,4.77,0,0,1-1.7,1.81,4.73,4.73,0,0,1-4.82,0,4.83,4.83,0,0,1-1.71-1.82,5.23,5.23,0,0,1-.62-2.55,5.29,5.29,0,0,1,.62-2.58,4.71,4.71,0,0,1,1.7-1.81,4.69,4.69,0,0,1,4.83,0,4.63,4.63,0,0,1,1.7,1.81,5.4,5.4,0,0,1,.61,2.58A5.32,5.32,0,0,1,448,110.57Zm-.66-4.77a3.87,3.87,0,0,0-1.42-1.55,3.7,3.7,0,0,0-2-.57,3.77,3.77,0,0,0-2,.57,4,4,0,0,0-1.43,1.55,4.71,4.71,0,0,0-.52,2.21,4.65,4.65,0,0,0,.52,2.18,4,4,0,0,0,1.43,1.55,3.85,3.85,0,0,0,5.48-1.54,5,5,0,0,0,0-4.4Z"/><path class="cls-2" d="M457.82,104a3.88,3.88,0,0,1,.86,2.62v5.88a.4.4,0,0,1-.11.27.37.37,0,0,1-.27.12.35.35,0,0,1-.28-.12.39.39,0,0,1-.1-.27v-5.8a3.25,3.25,0,0,0-.69-2.14,2.49,2.49,0,0,0-2.06-.84,3.93,3.93,0,0,0-3,1.5,2.47,2.47,0,0,0-.52,1.48v5.8a.36.36,0,0,1-.11.27.37.37,0,0,1-.27.12.36.36,0,0,1-.28-.12.39.39,0,0,1-.1-.27v-8.81a.33.33,0,0,1,.11-.27.37.37,0,0,1,.27-.12.35.35,0,0,1,.28.12.36.36,0,0,1,.1.27v1.28a4.42,4.42,0,0,1,1.57-1.42,4.18,4.18,0,0,1,2-.56A3.22,3.22,0,0,1,457.82,104Z"/><path class="cls-2" d="M461.57,101.48a.61.61,0,0,1-.18-.45v-.15a.58.58,0,0,1,.19-.44.71.71,0,0,1,.5-.17.64.64,0,0,1,.46.17.57.57,0,0,1,.18.44V101a.61.61,0,0,1-.18.45.7.7,0,0,1-.48.17A.73.73,0,0,1,461.57,101.48Zm.76,11.25a.34.34,0,0,1-.27.12.38.38,0,0,1-.28-.12.45.45,0,0,1-.1-.27v-9.12a.37.37,0,0,1,.12-.27.34.34,0,0,1,.26-.12.35.35,0,0,1,.28.12.4.4,0,0,1,.11.27v9.12A.37.37,0,0,1,462.33,112.73Z"/><path class="cls-2" d="M472,103.61l-6.06,8.51h5.58a.33.33,0,0,1,.27.11.35.35,0,0,1,.12.25.34.34,0,0,1-.12.26.37.37,0,0,1-.27.11h-6.26a.38.38,0,0,1-.29-.14.42.42,0,0,1-.11-.25.4.4,0,0,1,.1-.25l6.06-8.53h-5.18a.39.39,0,0,1-.27-.1.34.34,0,0,1,0-.52.4.4,0,0,1,.27-.11h5.88a.35.35,0,0,1,.26.12.47.47,0,0,1,.12.27A.43.43,0,0,1,472,103.61Z"/><path class="cls-2" d="M482,110.65a.36.36,0,0,1,.09.24.37.37,0,0,1-.07.23,5.25,5.25,0,0,1-1.58,1.38,4,4,0,0,1-2,.54,5.18,5.18,0,0,1-2.55-.62,4.41,4.41,0,0,1-1.74-1.74,5.48,5.48,0,0,1-.62-2.64,5.77,5.77,0,0,1,.6-2.69,4.43,4.43,0,0,1,1.61-1.78,4,4,0,0,1,2.13-.62,4.7,4.7,0,0,1,2.1.49,4,4,0,0,1,1.58,1.47,4.78,4.78,0,0,1,.66,2.42.38.38,0,0,1-.12.28.32.32,0,0,1-.27.13H474.3V108a4.94,4.94,0,0,0,.48,2.18,3.63,3.63,0,0,0,1.42,1.56,4.18,4.18,0,0,0,2.26.58,3.53,3.53,0,0,0,1.74-.45,3.58,3.58,0,0,0,1.28-1.15.42.42,0,0,1,.33-.17A.31.31,0,0,1,482,110.65Zm-5.6-6.55a3.82,3.82,0,0,0-1.31,1.11,4.08,4.08,0,0,0-.76,1.8h7.07v-.18a3.26,3.26,0,0,0-.62-1.68,3.54,3.54,0,0,0-1.31-1.06,3.84,3.84,0,0,0-1.62-.37A3.17,3.17,0,0,0,476.44,104.1Z"/><path class="cls-2" d="M492.69,98.75a.39.39,0,0,1,.1.27v13.44a.4.4,0,0,1-.11.27.37.37,0,0,1-.27.12.35.35,0,0,1-.28-.12.4.4,0,0,1-.11-.27v-1.82a4.11,4.11,0,0,1-1.46,1.71,3.81,3.81,0,0,1-2.22.69,4.07,4.07,0,0,1-2.27-.66,4.64,4.64,0,0,1-1.6-1.82,5.91,5.91,0,0,1,0-5.15,4.45,4.45,0,0,1,1.6-1.8,4.07,4.07,0,0,1,2.27-.66,4.11,4.11,0,0,1,3.68,2.42V99a.4.4,0,0,1,.11-.27.35.35,0,0,1,.28-.12A.38.38,0,0,1,492.69,98.75Zm-2.4,13a3.74,3.74,0,0,0,1.33-1.55,5.33,5.33,0,0,0,0-4.42,3.85,3.85,0,0,0-1.33-1.54,3.45,3.45,0,0,0-1.92-.56,3.4,3.4,0,0,0-1.89.56,3.84,3.84,0,0,0-1.34,1.55,4.84,4.84,0,0,0-.49,2.2,4.78,4.78,0,0,0,.49,2.2,4,4,0,0,0,1.33,1.55,3.34,3.34,0,0,0,1.9.57A3.41,3.41,0,0,0,490.29,111.75Z"/><path class="cls-3" d="M163.48,41.11l-25.91-15a13.47,13.47,0,0,0-12.21,0l-25.75,15c-3.36,2-3.35,5.12,0,7.07l25.91,15a13.5,13.5,0,0,0,12.21,0l25.76-15c3.36-1.95,3.33-5.12-.05-7.08"/><path class="cls-3" d="M122.1,65.16l-25.91-15A13.41,13.41,0,0,0,84,50.2l-25.74,15c-3.36,2-3.35,5.12,0,7.07l25.91,15a13.45,13.45,0,0,0,12.23,0l25.74-15c3.37-2,3.34-5.12-.05-7.07"/><path class="cls-3" d="M79.65,40.65l-25.92-15a13.47,13.47,0,0,0-12.21,0l-25.74,15c-3.36,2-3.35,5.12,0,7.08l25.92,15a13.49,13.49,0,0,0,12.22,0l25.74-15c3.37-2,3.34-5.12,0-7.07"/><path class="cls-3" d="M164.06,89.38l-25.92-15a13.47,13.47,0,0,0-12.21,0l-25.74,15c-3.37,2-3.35,5.13,0,7.08l25.93,15a13.47,13.47,0,0,0,12.21,0l25.75-15c3.36-2,3.34-5.12,0-7.07"/><path class="cls-4" d="M160.22,27.51l-25.92-15a13.47,13.47,0,0,0-12.21,0l-25.75,15c-3.37,2-3.34,5.13,0,7.08l25.92,15a13.41,13.41,0,0,0,12.21,0l25.75-15c3.35-1.94,3.34-5.11,0-7.07"/><path class="cls-5" d="M118.84,51.56l-25.92-15a13.45,13.45,0,0,0-12.2,0L55,51.56c-3.35,1.95-3.33,5.12,0,7.07l25.92,15a13.44,13.44,0,0,0,12.21,0l25.75-15c3.37-2,3.35-5.12,0-7.07"/><path class="cls-6" d="M76.38,27l-25.91-15a13.46,13.46,0,0,0-12.22,0L12.5,27c-3.35,1.95-3.33,5.13.05,7.08l25.91,15a13.47,13.47,0,0,0,12.21,0l25.75-15c3.37-2,3.35-5.11,0-7.07"/><path class="cls-7" d="M160.8,75.78l-25.92-15a13.47,13.47,0,0,0-12.21,0l-25.75,15c-3.36,2-3.35,5.12,0,7.07l25.92,15a13.54,13.54,0,0,0,12.21,0l25.75-15c3.36-1.95,3.33-5.12,0-7.07"/></svg>